<svg version="1.2" xmlns="http://www.w3.org/2000/svg" viewBox="0 0 1556 283" width="1556" height="283">
	<style>
		.s0 { fill: #000000 } 
		.s1 { fill: #caff00 } 
	</style>
	<path id="BUYMEASHAKE.FIT" class="s0" aria-label="BUYMEASHAKE.FIT"  d="m89.5 237h-52.9v-195.1h52.9q21.3 0 30.9 10.4 9.8 10.3 9.8 34.2v8.5q0 13.8-5 22.3-4.9 8.5-15 11.2 13.2 3.3 17.7 15.6 4.5 12.2 4.5 29.8 0 19-3.5 33.2-3.6 14.2-12.9 22-9.3 7.9-26.5 7.9zm-14.7-164.9v43.3h8q5.4 0 6.9-4.2 1.6-4.2 1.6-10.1v-19.6q0-9.4-8.3-9.4zm3.9 130.5q15.1 0 15.1-14.4v-24.4q0-8.3-2.5-13-2.4-4.9-9.3-4.9h-7.2v56.5q2.4 0.2 3.9 0.2zm111.1 36.2q-24.4 0-36-13.7-11.5-13.7-11.5-40.3v-142.9h37.9v141.3q0 4.9 0.6 9.5 0.5 4.4 2.5 7.3 2 2.9 6.5 2.9 4.5 0 6.5-2.8 2-2.9 2.4-7.4 0.6-4.6 0.6-9.5v-141.3h37.9v142.9q0 26.6-11.5 40.3-11.6 13.7-35.9 13.7zm123.3-1.8h-36.8v-64.2l-31.2-130.9h38.7l10.9 66.1 10.8-66.1h38.6l-31 130.9zm75.8 0h-35.3v-195.1h59.5l16.4 119 16.3-119h59.9v195.1h-35.7v-140.5l-22.4 140.5h-35l-23.7-140.5zm214.3 0h-80.6v-195.1h78.1v37.7h-38.4v38h36.8v36.7h-36.8v44.7h40.9zm46 0h-37.9l18.9-195.1h66.1l18.6 195.1h-37l-2.7-31.5h-23.5zm12.6-161.8l-7.4 99.2h17.7l-8.5-99.2zm630.9 161.7h-39.7v-33.1h39.7zm54.1 0.2h-39.2v-195.1h78v38h-38.8v31h36.8v37.6h-36.8zm86.7 0h-37.7v-195.1h37.7zm71.8 0h-39v-157.6h-23.2v-37.5h85.4v37.5h-23.2z"/>
	<path id="BUYMEASHAKE.FIT" class="s1" aria-label="BUYMEASHAKE.FIT"  d="m773 238.8q-26.7 0-38.6-13.3-11.7-13.3-11.7-42.4v-19h38.5v24.4q0 6.7 2 10.6 2.1 3.8 7.2 3.8 5.3 0 7.3-3.1 2.1-3.1 2.1-10.2 0-9-1.7-15-1.8-6.1-6.2-11.5-4.4-5.6-12.1-12.9l-17.5-16.6q-19.6-18.5-19.6-42.4 0-24.9 11.5-38 11.6-13.1 33.6-13.1 26.8 0 38 14.3 11.3 14.3 11.3 43.5h-39.7v-13.4q0-4-2.3-6.2-2.2-2.2-6.1-2.2-4.7 0-6.9 2.6-2.1 2.6-2.1 6.7 0 4.1 2.2 8.8 2.2 4.8 8.8 11l22.5 21.6q6.7 6.5 12.4 13.7 5.6 7.1 9.1 16.6 3.4 9.4 3.4 23 0 27.5-10.2 43.2-10.1 15.5-35.2 15.5zm97.4-1.8h-38.8v-195.1h38.8v69.7h18.4v-69.7h38.8v195.1h-38.8v-88.5h-18.4zm106.8 0h-37.9l18.9-195h66.1l18.5 195h-36.9l-2.7-31.4h-23.5zm12.6-161.9l-7.4 99.2h17.7l-8.5-99.2zm103.6 161.9h-38.8v-195.1h38.5v78.1l18.2-78.1h39.2l-21.8 89.3 26.4 105.8h-40.5l-21.2-94.5zm148.7 0h-80.5v-195h78v37.6h-38.4v38.1h36.8v36.6h-36.8v44.7h40.9z"/>
</svg>